<?xml version="1.0" encoding="UTF-8"?>
<!DOCTYPE svg PUBLIC "-//W3C//DTD SVG 1.1//EN" "http://www.w3.org/Graphics/SVG/1.1/DTD/svg11.dtd">
<!-- Creator: CorelDRAW 2020 (64-Bit) -->
<svg xmlns="http://www.w3.org/2000/svg" xml:space="preserve" width="405.822mm" height="305.324mm" version="1.1" style="shape-rendering:geometricPrecision; text-rendering:geometricPrecision; image-rendering:optimizeQuality; fill-rule:evenodd; clip-rule:evenodd"
viewBox="0 0 35768.01 26910.38"
 xmlns:xlink="http://www.w3.org/1999/xlink"
 xmlns:xodm="http://www.corel.com/coreldraw/odm/2003">
 <defs>
  <style type="text/css">
   <![CDATA[
    .fil1 {fill:#353B6F}
    .fil4 {fill:#3F4883}
    .fil7 {fill:#4A5295}
    .fil2 {fill:#A9CDF1}
    .fil6 {fill:#AC7EFD}
    .fil9 {fill:#B0AFB1}
    .fil8 {fill:#D9C9FD}
    .fil3 {fill:#DCDCDD}
    .fil5 {fill:#FD9ECC}
    .fil10 {fill:#FDFDFD}
    .fil0 {fill:#FED4BE}
   ]]>
  </style>
 </defs>
 <g id="Layer_x0020_1">
  <metadata id="CorelCorpID_0Corel-Layer"/>
  <path class="fil0" d="M11971.16 3957.53c26.78,111.72 32.7,41.63 -18.36,157.98 -40.41,92.08 -48.39,108.77 -74.93,207.76 -38.9,145.03 -85.76,245.5 -142.14,386.45l-422.27 914.72c-89.43,120.71 -619.32,236.17 -821.49,266.77l-161.51 25.05c-320.32,81.54 -274.74,45.35 -417.13,79.99l-118.67 46.92 449.78 -69.07c-112.9,842.48 678.25,1638.35 1494.53,1906.79 465.03,152.93 1818.71,266.99 1885.28,-446.78 32.48,-348.24 -78.57,-464.83 -163.67,-716.66 36.82,-37.27 -6.98,-15.12 65.22,-21.56 -94.65,-84.87 -299.74,-270.54 -356.25,-371.73 -77.65,-139.01 36.08,-310.16 111.45,-535.57 101.38,-303.23 243.14,-829.53 369.17,-1092.19 350.4,29.16 662.13,66.7 893.42,-132.65 484.19,-417.34 458.29,-1097.48 384.05,-1735.58 -20.61,-177.16 -36.12,-320.05 -72.19,-487.48 -41.03,-190.37 -49.45,-260.38 -146.93,-411.56l-32.28 -60.96c-235.16,132.91 -298.88,230.86 -684.31,217.67 -244.63,-8.36 -551.27,-191.6 -780,-66.72 -432.24,236.01 -62.11,1049.79 -746.18,1029.43 -62.11,-184.16 -38.82,-424.3 -252.15,-462.51 -205.54,-36.81 -328.8,163.58 -361.42,315.06 -34.16,158.65 29.41,460.91 81.01,592 125.4,318.64 214.16,9.3 121.4,481.49 -63.67,-2.47 -39.74,6.4 -83.44,-17.07z"/>
  <path class="fil1" d="M11971.16 3957.53c43.7,23.47 19.77,14.6 83.44,17.07 92.76,-472.2 4,-162.85 -121.4,-481.49 -51.6,-131.1 -115.17,-433.35 -81.01,-592 32.61,-151.47 155.88,-351.87 361.42,-315.06 213.33,38.21 190.04,278.35 252.15,462.51 684.07,20.35 313.94,-793.42 746.18,-1029.43 228.73,-124.88 535.36,58.36 780,66.72 385.42,13.19 449.15,-84.76 684.31,-217.67l32.28 60.96c123.81,-33.69 238.76,-288.68 287.94,-426 86.19,-240.6 33.41,-697.88 -52.07,-899.31 -281.68,-663.73 -1241.11,-694.8 -1842.64,-497.92 -401.06,131.25 -506.47,215.79 -1081.55,379.82 -926.37,264.22 -1229.44,638.74 -1168.42,1661.11 50.4,844.54 487.01,1290.36 1119.38,1810.7z"/>
  <path class="fil2" d="M22904.12 21003.9l435.57 -93.28 149.99 -526.97c148.68,31.68 280.41,183.6 391.67,282.23 137.04,121.49 269.43,154.43 258.03,401.94 -192.71,152.04 -282.09,120.04 -562.59,184.28 -201.16,46.07 -374.31,87.26 -586.35,128.88 -383.37,75.26 -813.61,184.88 -1192.42,267.58 -1394.16,304.4 -1158.35,396.84 -1612.01,-85.47 -127.98,-136.06 -299.45,-200.76 -266.92,-431.03 148.52,-162.88 555.15,-192.49 835.73,-232.08 7.74,-4.17 18.86,-7.32 24.47,-9.86 5.51,-2.49 17.35,-6.79 23.93,-10.01 168.92,-82.83 146.32,-253.3 228.55,-567.84 56.71,-216.93 130.2,-451.93 167.3,-669.52 -984.83,166.41 -2448.77,565.61 -3519.67,774.21 -521.96,101.68 -759.9,-188.84 -983.84,-393.3l-4.51 55.85c-424.66,53.94 -1040.56,214.27 -1457.84,312.93 -486.01,114.92 -977.96,231.2 -1459.7,324.67 -329.62,63.96 -476.12,-118.17 -622.2,-265.28l-1299.79 -1343.04c-166.49,-172.56 -241.5,-429.11 -51.64,-650.5 141.75,-165.29 412.35,-180.36 649.91,-226.83 614.93,-120.29 4108.76,-824.22 4446.86,-832.62l167.19 -990.91 -195.49 22.75 -348.9 33.61c-193.25,-5.68 -3348.41,626.62 -3451.32,650.59l0 -61.67c-76.17,93.07 -37.74,89.73 -193.58,122.33l-2655.91 507.06c-264.69,56.47 -723.67,163.97 -976.98,178.03 123.48,173.58 319.64,353.19 464.1,502.13 165.92,171.06 303.43,321.24 474.94,488.91 320.81,313.65 634.11,662.77 996.23,931.93 781.01,580.5 1968.48,711.33 2261.99,1558.97 152.88,87.5 460.39,452.13 613.01,633.35 255.4,303.25 304.29,646.63 -45.54,805.5 -96.85,43.98 -912.39,220.44 -1027.79,209.26 -214.7,-20.79 -617.55,-451.31 -682.17,-574.5 -198.86,-147.59 -449.3,-282.24 -748.3,-515.22 -813.72,-634.02 -465.87,-470.29 -1447.35,-1071.6 -276.17,-169.2 -523.91,-313.62 -781.55,-461.72 -513.67,-295.28 -1082.12,-637.44 -1567.57,-951.46l-1512.33 -981.93 -2649.19 505.04 -1737.93 340.32 -10.56 42.7 -184.61 0c-144.97,-54.01 -1111.58,186.29 -1422.33,225.75 -303.36,38.52 -225.59,-3.7 -225.59,800.48 0,445.64 0.98,891.39 -0.04,1337.03l30.83 995.23c-0.83,95 -18.66,231.49 31.12,310.63l-15.65 -969.24c156.89,79.33 249.61,217.43 381.3,354.36 122.82,127.71 235.26,245.09 366.81,380.32l3806.96 3903.94c177.29,198.55 323.03,111.08 851.93,-20.5 390.31,-97.11 828.65,-198.32 1226.02,-268.76 789.03,-139.86 1637.49,-367.68 2418.76,-535.54 819.42,-176.06 1596.44,-363.43 2426.55,-527.54 783.45,-154.88 1610.67,-362.78 2417.48,-536.07l12085.08 -2651.4c803.58,-177.55 1612.38,-348.12 2418.72,-536.07 802.61,-187.09 1618.54,-338.25 2423.93,-527.92 405.36,-95.46 4476.74,-1013.8 4855.38,-1061.25l-2.04 1005.71c42.42,-61.78 35.68,-171.99 34.88,-247.6 -1,-93.79 -1.23,-187.16 -1.23,-280.97 -0.01,-186.56 0,-373.11 0,-559.67 -160.49,-84.92 -652.13,-559.25 -800.95,-691.52l-2005.57 -1756.66c-102.42,-103.88 -319.56,-324.66 -450.52,-350.19 -11.2,466.37 -747.01,1740.71 -1050.45,2158.41 -261.32,359.7 -1189.59,319 -1582.16,256.4 -525.54,-83.79 -542.66,-182.41 -777.28,-537.77 -314.47,-476.28 -676.3,-1156.79 -830.33,-1719.15 -24.36,-88.94 -316.25,-944.53 -150.02,-990.29 -196.66,-100.28 -227.7,10.58 -458.26,-167.95 -17.72,-307.48 180.78,-707.72 344.48,-821.47 97.64,-187.89 120.36,-101.43 332.45,-168.12 -57.2,-215.27 -498.09,-647.53 -692.96,-775.63 -74.36,70.74 -74.05,40.1 -103.63,175.67 -140.53,644.08 -501.32,3046.62 -612.48,3387.05 -192.03,588.07 -718.5,628.36 -1384.39,766.86 -196.93,40.97 -1643.17,353.77 -1703.89,399.18 -62.3,48.97 -13.68,-35.54 -67.35,94.57l-451.17 1720.26c-135.61,17.46 -328.99,41.34 -417.31,110.96z"/>
  <path class="fil3" d="M17581.5 12046.76c120.83,540.57 201.87,317.92 92.79,975 -30.81,185.6 -126.23,878.71 -195.87,976.19l-377.98 2237.74c-10.83,45.27 -23.79,85.62 -71.29,117.16 -51.64,34.29 -34.63,13.56 -69.66,29.82l-69.65 34.46c-5.29,2.83 -15.64,7.46 -21.51,13.56l195.49 -22.75 -167.19 990.91c-80.43,432.67 -159.55,878.85 -240.01,1304.58 -111.48,589.93 -199.28,803.37 38.92,1320.23 223.94,204.45 461.88,494.97 983.84,393.3 1070.9,-208.59 2534.85,-607.79 3519.67,-774.21l465.65 -1805.59c369.52,-114.32 1395.4,-314.8 1888.6,-425.83 189.2,-42.6 399.16,-125.16 594.58,154.45l-2158.14 481.88 -846.22 3297.9 175.07 -8.66 1585.53 -333.03c88.32,-69.63 281.7,-93.5 417.31,-110.96l451.17 -1720.26c53.67,-130.11 5.04,-45.6 67.35,-94.57 60.72,-45.41 1506.96,-358.22 1703.89,-399.18 665.89,-138.51 1192.36,-178.8 1384.39,-766.86 111.16,-340.43 471.96,-2742.97 612.48,-3387.05 29.58,-135.56 29.27,-104.93 103.63,-175.67 -286.2,-305.53 -1145.84,-444.76 -1759.2,-1001.53 -69.13,-62.75 -415.55,-351.41 -389.48,-504.02 113.24,147.18 835.44,348.52 1107.11,435.21 209.89,66.98 400.1,117.99 588.18,189.61 210.37,80.12 386.4,168.41 584.09,247.37 0,-156.95 -6.73,-155.5 29.82,-272.09 20.47,-65.25 37,-160.45 63.46,-215.59 54.43,37.82 49.1,31.96 109.38,62.18 -118.76,-242.89 -275.47,-379.73 -472.18,-853.5 -110.18,-265.35 -268.41,-701.59 -265.06,-1048.37 152.53,103.53 712.64,951.3 907.69,1077.53 -46.32,-215.12 -154.74,-25.25 -45.26,-713.38 16.43,-103.24 38.11,-179.7 45.26,-265.67l62.19 0c26.05,111.83 48.02,165.12 132.8,217.66 -353.69,-791.6 -531.69,-1113.9 -517.74,-2130.55 57.1,34.29 54.51,8 121.74,156.46 154.43,340.99 535.43,977.54 760.7,1201.03 -40.17,-183.75 -229.85,-288.95 -297.84,-485.2 -124.93,-360.57 220.85,-1035.95 145.14,-1438.47 -37.92,-201.61 -84.86,-315.77 -226.36,-499.9 -113.86,-148.16 -140.33,-166.69 -326.14,-264.61 -6.17,-3.25 -13.93,-7.75 -20.14,-10.96l-107.38 -48.09c-42.89,-13.56 -82.21,-19.95 -153.02,-33.62 -85.26,-16.46 -243.98,-29.74 -366.4,-6.03 -295.2,57.16 -74.1,95.61 -428.59,86.07l-599.98 155.51c-249.28,22.86 -600.75,150.08 -795.5,173.23l-1293.09 263.68c-170.39,63.89 -159.59,-6.16 -284.59,53.27l-307.65 98.6c-91.98,20.64 -214.58,33 -318.43,54.68 -144.27,30.13 -40.17,10.51 -141.83,44.73 -252.62,85.03 -603.93,92.12 -895.44,193.63 -240.59,83.77 -151.08,5.89 -290.92,28.27l-521.9 148.51c-332.15,2.96 -192.62,173.67 -263.32,-10.03l-93.28 0c-21.29,194.55 -67.28,38.13 -263.72,138.45 -211.23,107.88 -108.94,2.67 -434.64,98.11 -183.4,53.73 -340.27,28.82 -469.05,88.92l-1311.59 304.81c-92.17,22.75 -355.3,187.67 -418.58,265.47 -92.93,114.25 -209.64,261.61 -235.46,414.1l-64.51 340.96c-49.03,120.83 79.42,70.94 -98.3,90.38l0 93.28c63.32,25.55 86.52,6.88 36.67,189.79l-129.94 680.81c-67.51,-77.67 -64.84,-77.09 -150.55,-93.28z"/>
  <path class="fil1" d="M9772.27 5931.23c-423.02,-51.57 -2300.99,599.08 -2934.99,755.3l-320.15 85.08c-68.57,28.93 -61.8,28.78 -75.75,51.54l3.95 54.12c982.65,28.13 1387.55,440.82 1586.15,1280.49 352.58,1490.68 -143.21,3427.69 -499.17,4917.95 -74.7,312.72 -535.24,2115.86 -538.33,2257.8 82.51,181.43 2111.86,2423.29 2247.66,2527.14 253.31,-14.06 712.29,-121.56 976.98,-178.03l2655.91 -507.06c155.84,-32.6 117.42,-29.26 193.58,-122.33 56.56,-119 95.2,-272.56 137.44,-422.75l909.04 -2760.54c46.68,-140.86 82.21,-117.25 41.93,-237.44 5.49,-265.72 61.05,-217.82 146.19,-351.72 28.22,-44.39 100.44,-271.15 124.6,-335.94 83,-222.5 162.93,-460.01 242.68,-696.88 161.01,-478.2 319.55,-930.74 489.01,-1373.59 233.17,-609.35 530.34,-1451.35 776.52,-2022.07 266.41,-617.61 200.09,-368.16 179.84,-723.25 -3.93,-158.81 -1138.74,-751.48 -1243.87,-808.41 -109.68,-59.4 -229.91,-123.97 -340.62,-187.96l-840.74 -465.51c-81.08,-42.85 -102.02,-73.38 -186.73,-83.23 -72.2,6.44 -28.4,-15.71 -65.22,21.56 85.11,251.83 196.15,368.42 163.67,716.66 -66.57,713.77 -1420.25,599.7 -1885.28,446.78 -816.27,-268.44 -1607.42,-1064.31 -1494.53,-1906.79l-449.78 69.07z"/>
  <path class="fil4" d="M71.03 22991.46l320.37 363.95c259.08,309.94 924.39,874.52 1229.91,1257.51l525.44 531.73c245.52,245.52 481.39,454.42 705.16,725.11l166.27 175.75c60.48,65.71 106.35,108.06 170.18,171.85 126.82,126.74 230.79,230.79 357.57,357.56 64.45,64.46 107.2,106.07 170.9,171.12 68.78,70.25 105.69,141.85 212.16,160.96l4973.9 3.4c195.51,-4.77 2552.9,-546.65 2940.19,-635.5 211.31,-48.48 384.27,-71.81 590.8,-124.33l6979.73 -1539.71c792.81,-165.65 1536.4,-353.02 2347.33,-513.22l2314.04 -515.41c389.68,-92.51 771.89,-171.67 1173.81,-256.46 372.82,-78.65 768.15,-179.61 1171.06,-259.21 109.56,-21.65 177.94,-30.72 284.37,-57.66l9028.04 -2007.37 2.04 -1005.71c-378.64,47.45 -4450.02,965.79 -4855.38,1061.25 -805.39,189.66 -1621.32,340.83 -2423.93,527.92 -806.33,187.95 -1615.13,358.52 -2418.72,536.07l-12085.08 2651.4c-806.81,173.29 -1634.03,381.18 -2417.48,536.07 -830.11,164.1 -1607.13,351.47 -2426.55,527.54 -781.27,167.86 -1629.73,395.68 -2418.76,535.54 -397.38,70.44 -835.72,171.65 -1226.02,268.76 -528.89,131.58 -674.64,219.05 -851.93,20.5l-3806.96 -3903.94c-131.54,-135.23 -243.99,-252.61 -366.81,-380.32 -131.69,-136.93 -224.41,-275.02 -381.3,-354.36l15.65 969.24z"/>
  <path class="fil5" d="M3504.54 13352.67c52.48,-586.32 424.65,-2118.23 616.04,-2694.82 143.98,-433.74 263.54,-824.58 443.22,-1206.47l513.6 -1166.85c-64.6,-101.3 -14.23,-456.14 -35.79,-648.41 -89.76,-800.36 -106.06,-1663.61 -391.07,-2407.28 -234.11,-610.86 -614.69,-1272.75 -1220.38,-1577.97l-497.83 -217.31c-581.57,-333.74 -655.59,-732.95 -933.06,-1150.17 -320.97,-482.63 -810.38,-652.74 -1461.57,-652.74 0,169.43 391.02,1187.44 454.14,1442.52 70.68,285.6 130.08,473.59 181.03,782.84 97.43,591.36 199.87,1072.54 49.3,1692.77 -62.15,256.03 -152.44,490.83 -196.71,767.16 -140.39,876.44 -121.54,1746.4 14.13,2679.3 56.3,387.16 286.01,1057.32 505.51,1422.25 126.21,209.84 283.87,357.31 423.42,540.46l820.7 1107.06c172.33,263.2 618.24,1024.76 640.11,1287.64l75.22 0z"/>
  <path class="fil4" d="M5077.4 8284.53l-513.6 1166.85c-179.68,381.89 -299.23,772.73 -443.22,1206.47 -191.4,576.59 -563.57,2108.5 -616.04,2694.82 -80.46,185.59 -269.49,1579.17 -258.77,1865.57l-27.76 285.12 79.26 37.25c-0.19,-0.25 -105.88,-23.68 24,-122.38l481.18 -137.64 92.03 178.29 -6.25 -147.23c354.82,-199.97 2725.72,-158.67 3105.76,21.88 3.09,-141.94 463.64,-1945.08 538.33,-2257.8 355.96,-1490.26 851.76,-3427.27 499.17,-4917.95 -198.61,-839.68 -603.5,-1252.36 -1586.15,-1280.49l-3.95 -54.12c-203.46,3.37 -397.02,104.8 -523.99,187.19 -116.25,75.45 -259.56,256.76 -342.92,372.22 -130.93,181.34 -443.54,669.79 -497.08,901.95z"/>
  <path class="fil0" d="M3894.48 15458.87c19.67,43.86 62.15,436.62 98.7,562.3 60.89,209.3 93.84,301.57 186.15,469.54 271.3,493.64 847.6,1011.47 1307.23,1365.29 112.23,86.39 698.99,502.31 752.75,578.28l1512.33 981.93c485.44,314.02 1053.89,656.18 1567.57,951.46 257.64,148.1 505.38,292.52 781.55,461.72 981.48,601.31 633.63,437.58 1447.35,1071.6 299.01,232.98 549.44,367.63 748.3,515.22 192.02,64.8 336.98,173.16 585.24,178.65 369.5,8.17 320.78,-189.24 497.43,-259.18l236.04 497.71c25.93,-267.25 -242.02,-423.02 -200.72,-668.58 57.97,-344.46 94.11,-457.97 24.49,-822.22 -293.51,-847.64 -1480.98,-978.47 -2261.99,-1558.97 -362.12,-269.15 -675.42,-618.28 -996.23,-931.93 -171.51,-167.66 -309.02,-317.85 -474.94,-488.91 -144.46,-148.93 -340.62,-328.55 -464.1,-502.13 -135.8,-103.85 -2165.15,-2345.71 -2247.66,-2527.14 -380.03,-180.55 -2750.93,-221.84 -3105.76,-21.88l6.25 147.23z"/>
  <path class="fil6" d="M29889.36 12824.09c-37.84,-43.53 -41.49,-46.78 -72.02,-114.55 -24.37,-54.11 -30.34,-85.85 -52.63,-133.92l-124.94 -248.18c-127.42,-283.63 -781.24,-1308.22 -931.95,-1395.75 -225.27,-223.49 -606.26,-860.03 -760.7,-1201.03 -67.22,-148.46 -64.63,-122.18 -121.74,-156.46 -13.94,1016.65 164.06,1338.96 517.74,2130.55 14.9,144.31 117.01,253.95 178.51,372.73 147.3,284.47 489.62,845.88 497.1,1181.9 -84.5,-56.58 -132.29,-121.17 -217.66,-186.54l-427.51 -412.01c-72.07,-72.32 -144.64,-166.15 -225.43,-194.69 -195.05,-126.23 -755.16,-974.01 -907.69,-1077.53 -3.36,346.78 154.87,783.01 265.06,1048.37 196.7,473.76 353.42,610.61 472.18,853.5 1.28,103.05 -19.21,19.07 43.68,125.61 19.87,33.66 46.46,67.94 77.6,110.05 63.45,85.77 108.21,158.14 168.94,235.34 90.11,114.54 286.31,336.31 315.53,461.8 -229.49,-153.68 -418.11,-332.89 -681.51,-470.48 -126.49,-66.07 -10.4,-44.94 -126.9,-36.81 -197.69,-78.96 -373.73,-167.26 -584.09,-247.37 -188.08,-71.62 -378.29,-122.63 -588.18,-189.61 -271.67,-86.69 -993.87,-288.03 -1107.11,-435.21 -26.07,152.61 320.34,441.27 389.48,504.02 613.36,556.77 1473,696 1759.2,1001.53 194.87,128.1 635.76,560.36 692.96,775.63 -212.09,66.69 -234.82,-19.77 -332.45,168.12 5.92,201.36 826.76,198.76 1074.42,212.07 420.41,22.59 873.68,30.69 1307.58,31.99 391.95,1.17 904.53,5.34 1285.03,-37.32l892.71 -98.48c166.69,-26.26 188.04,-13.92 154.38,-152.02 -49.17,-92.72 -136.5,-93.28 -279.99,-93.28 43.23,-161.93 510.09,-354.05 647.72,-409.43 579.46,-233.2 1190.81,-150.67 1942.55,-700.34 108.55,-79.38 233.68,-152.39 270.26,-289.41 -140.56,0 -497.85,118.17 -810.86,153.02 -681.85,75.91 -1427.37,103.88 -2044.11,381.14 -104.06,46.78 -207.85,117.33 -347.6,149.89 9.41,-113.08 26.19,-121.18 79.75,-200.09 200.43,-295.3 167.19,-276.8 451.98,-574.09l653.74 -621.06c48.08,-52.81 68.6,-89.23 128.3,-151.53 194.41,-202.88 576.14,-885.73 582.9,-1189.4 -126.13,33.68 -216.94,175.02 -353.13,299.82l-237.57 197.72c-313.2,232.59 -1030.68,764.93 -1251.58,987.12 -100.54,101.13 -178.71,179.29 -279.84,279.84l-272.03 287.64c228.38,-980.32 229.46,-1082.63 779.1,-1988.16 41.35,-68.13 75.7,-142.66 118.32,-223.71 49.47,-94.08 65.55,-115 111.15,-230.88 241.15,-612.77 328.43,-1045.11 328.43,-1785.89l-93.28 0c-41.16,176.66 -208.81,433.41 -300.03,601.67l-1557.34 2391.46c-35.64,55.63 -11.36,21.83 -39.3,53.97 -2.67,-120.08 -146.68,-631.35 -186.55,-746.22l-228.87 -735.01c-306.43,-1037.5 -82.06,-940.27 -82.06,-1659.14l-93.28 0c-26.55,113.95 -108.51,210.04 -166.37,331.11 -62.89,131.64 -88.75,213.36 -133.77,363.72 -165.96,554.22 -297.93,1674.51 -215.72,2246.28 21.36,148.52 49.48,300.19 49.48,448.01z"/>
  <path class="fil2" d="M1657.03 19322.34l184.61 0 10.56 -42.7c-229.02,-226.34 -1396.74,-424.79 -1801.48,-429.26l-1.22 -1450.14c978.75,54.16 1845.97,427.95 2705.51,785.7 136.21,56.69 726.02,371.19 765.34,359.25 -128.73,-160.1 -1297.75,-611.05 -1593.51,-731.63 -261.31,-106.54 -608.97,-202.67 -896.35,-281.11 -307.32,-83.89 -643.18,-135.19 -987.27,-199.03l-7.76 -1580.76c585.27,65.88 1497.29,944.05 2451.12,1211.4 421.1,118.03 691.21,93.46 1117.89,153.98l197.09 -1421.2 -504.3 -156.22 -79.26 -37.25 27.76 -285.12c-221.25,-139.44 -386.24,-389.68 -570.46,-582.97 -652.22,-684.32 -859.29,-1641.59 -1067.99,-2476.6 -41.64,-166.6 -68.46,-311.82 -120.31,-470.47 -52.24,-159.86 -94.68,-295.67 -140.91,-449.85 -204.42,-681.74 -668.68,-1597.91 -1125.14,-2108.52 -70.23,-78.56 -73.65,-96 -211.85,-99.08 0,316.28 -28.8,3841.53 19.92,4026.67 41.56,157.89 6.85,43.88 -16.96,201.97 -38.73,257.13 28.13,4955.78 28.13,5627.8 429.51,0 892.08,90.24 1286.35,206.11 157.38,46.25 241.95,100.8 392.67,135.92l-62.19 93.12z"/>
  <path class="fil4" d="M14156.52 13632.5c131.47,-97.42 36,-130.24 155.31,-217.66 96.15,412.7 1725.76,2785.17 1772.3,2984.92 141.11,-11.74 146.87,-75.94 237.29,-155.47 2.99,-162.45 -51.93,-109.83 -128.4,-248.74 70.41,-712.89 886.41,-1733.17 1285.4,-1997.61 69.64,-97.48 165.05,-790.59 195.87,-976.19 109.08,-657.08 28.04,-434.43 -92.79,-975l-1074.67 -3252.16 -391.46 -665.54c20.25,355.09 86.57,105.63 -179.84,723.25 -246.19,570.72 -543.36,1412.72 -776.52,2022.07 -169.46,442.85 -328,895.4 -489.01,1373.59 -79.75,236.86 -159.68,474.37 -242.68,696.88 -24.16,64.78 -96.38,291.54 -124.6,335.94 -85.14,133.9 -140.7,86 -146.19,351.72z"/>
  <path class="fil6" d="M16695.55 20023.67c-238.2,-516.85 -150.41,-730.3 -38.92,-1320.23 80.46,-425.73 159.57,-871.92 240.01,-1304.58 -338.1,8.4 -3831.94,712.33 -4446.86,832.62 -237.56,46.47 -508.16,61.54 -649.91,226.83 -189.86,221.38 -114.85,477.93 51.64,650.5l1299.79 1343.04c146.08,147.1 292.58,329.24 622.2,265.28 481.74,-93.47 973.7,-209.75 1459.7,-324.67 417.29,-98.66 1033.18,-258.99 1457.84,-312.93l4.51 -55.85z"/>
  <path class="fil4" d="M32508.87 17114.9c103.2,-174.06 176.32,-525.59 180.02,-777.33 -18.13,-64.73 8.73,-29.41 -32.27,-61.25 -852.29,242.15 -3672.47,232.55 -4537.99,6.17 -166.23,45.76 125.66,901.35 150.02,990.29 154.03,562.36 515.87,1242.88 830.33,1719.15 234.62,355.36 251.75,453.98 777.28,537.77 392.57,62.6 1320.84,103.3 1582.16,-256.4 303.44,-417.7 1039.24,-1692.04 1050.45,-2158.41z"/>
  <path class="fil5" d="M1852.21 19279.63l1737.93 -340.32c-100.6,-317.62 -0.07,-1428.01 14.35,-1821.29 -426.68,-60.52 -696.79,-35.95 -1117.89,-153.98 -953.83,-267.36 -1865.86,-1145.52 -2451.12,-1211.4l7.76 1580.76c344.09,63.84 679.95,115.14 987.27,199.03 287.38,78.44 635.04,174.57 896.35,281.11 295.76,120.58 1464.78,571.53 1593.51,731.63 -39.32,11.94 -629.13,-302.56 -765.34,-359.25 -859.54,-357.75 -1726.77,-731.54 -2705.51,-785.7l1.22 1450.14c404.74,4.48 1572.46,202.93 1801.48,429.26z"/>
  <path class="fil7" d="M5818.65 22910.73c52.01,26.63 60.5,441.74 86.16,535.23 30.26,110.26 220.18,232.01 348.62,296.66 297.13,149.57 702.94,189.86 1093.6,187.28 435.08,-2.87 1341.28,-178.36 1470.69,-461.25 28.79,-62.94 85.32,-464.87 82.63,-556.5l-26.27 -33.83c-93.13,156.13 65.44,238.85 -129.54,359.79 -586.49,363.75 -1887.5,420.78 -2513.11,152.27 -158.91,-68.2 -201.7,-111.16 -323.26,-176.34l-6.58 -357.19c127.76,49.82 188.84,107.54 327.34,163.95 394.41,160.65 784.69,167.53 1212.36,160.77 600.75,-9.49 966.57,-134.59 1416.35,-391.61l6.85 -596.87c-235.63,99.55 -334.22,196.19 -666.6,279.39 -492.25,123.22 -1181.8,149.4 -1675.75,30.35 -455.19,-109.71 -402.88,-175.5 -639.19,-277.36l-2.63 173.23c-175.48,-40.79 -543.73,-325.79 -553.27,-528.56 -15.07,-320.31 430.17,-341.46 546.49,-28.65 107.72,41.64 209.33,129.93 326.09,182.03 338.47,151.01 818.37,191.7 1210.61,179.6 794.65,-24.5 899.85,-126.74 1459.82,-396.66l8.28 -558.51c-114.85,37.04 -217.32,114.02 -345.53,166.24 -781.79,318.42 -2381.26,313.09 -2677.69,-213.69 -577.35,-102.82 -1043.33,140.76 -896.72,786.4 56.33,248.09 217.43,409.54 347.26,527.33 268.91,243.99 462.09,249.03 513.02,396.49z"/>
  <path class="fil8" d="M28004.85 15293.08c-163.7,113.76 -362.19,514 -344.48,821.47 230.56,178.52 261.6,67.66 458.26,167.95 865.53,226.38 3685.71,235.98 4537.99,-6.17 41,31.84 14.14,-3.48 32.27,61.25 123.13,-33.49 4.2,-9.85 109.77,-44.47 243.62,-79.88 55.67,16.54 355.45,-142.09 0,-239.34 -110.44,-545.1 -229.99,-733.58 -67.24,-106.01 -84.97,-128.13 -205.15,-168.11 33.66,138.1 12.3,125.76 -154.38,152.02l-892.71 98.48c-380.51,42.66 -893.09,38.49 -1285.03,37.32 -433.9,-1.3 -887.16,-9.4 -1307.58,-31.99 -247.66,-13.31 -1068.5,-10.71 -1074.42,-212.07z"/>
  <path class="fil1" d="M3297.27 15540.6l504.3 156.22 -197.09 1421.2c-14.42,393.28 -114.95,1503.67 -14.35,1821.29l2649.19 -505.04c-53.76,-75.97 -640.53,-491.89 -752.75,-578.28 -459.63,-353.82 -1035.92,-871.65 -1307.23,-1365.29 -92.31,-167.97 -125.26,-260.24 -186.15,-469.54 -36.56,-125.67 -79.03,-518.44 -98.7,-562.3l-92.03 -178.29 -481.18 137.64c-129.88,98.7 -24.18,122.13 -24,122.38z"/>
  <path class="fil7" d="M5864.75 20865.75c419.72,335.22 864.02,398.71 1513.37,387.31 681.43,-11.96 1045.92,-123.79 1501.43,-398.72 -27.92,-269.16 -0.56,-515.92 -469.15,-695.36 -471.41,-180.52 -2029.34,-256.56 -2449.69,233.92 -121.08,141.28 -101.05,247.58 -95.96,472.85z"/>
  <path class="fil1" d="M8900.34 22912.16c2.69,91.63 -53.84,493.56 -82.63,556.5 -129.4,282.89 -1035.6,458.38 -1470.69,461.25 -390.66,2.57 -796.47,-37.71 -1093.6,-187.28 -128.44,-64.65 -318.36,-186.4 -348.62,-296.66 -25.67,-93.49 -34.15,-508.61 -86.16,-535.23 -252.81,-4.09 -1139.24,573.11 -260.63,1030.23 449.14,233.69 1131.24,344.39 1757.68,355.36 582.23,10.2 2413.94,-208.2 2187.01,-939.03 -55.45,-178.57 -390.87,-437.28 -602.37,-445.13z"/>
  <path class="fil4" d="M22904.12 21003.9l-1585.53 333.03c-198.52,141.8 -207.9,2.85 -506.07,-156.1l58.69 -241.5c-38.17,-40 62.87,-40.6 -116.4,-39.34 -280.58,39.59 -687.21,69.21 -835.73,232.08 -32.52,230.27 138.95,294.97 266.92,431.03 453.66,482.3 217.86,389.87 1612.01,85.47 378.81,-82.71 809.05,-192.32 1192.42,-267.58 212.04,-41.63 385.2,-82.81 586.35,-128.88 280.5,-64.23 369.88,-32.24 562.59,-184.28 11.4,-247.51 -120.99,-280.45 -258.03,-401.94 -111.26,-98.63 -242.99,-250.56 -391.67,-282.23l-149.99 526.97 -435.57 93.28z"/>
  <path class="fil9" d="M21199.06 19642.76c-37.11,217.58 -110.59,452.58 -167.3,669.52 -82.23,314.54 -59.63,485.01 -228.55,567.84 -6.58,3.23 -18.42,7.52 -23.93,10.01 -5.61,2.55 -16.73,5.69 -24.47,9.86 179.27,-1.26 78.23,-0.66 116.4,39.34l-58.69 241.5c298.17,158.95 307.55,297.9 506.07,156.1l-175.07 8.66 846.22 -3297.9 2158.14 -481.88c-195.43,-279.62 -405.38,-197.05 -594.58,-154.45 -493.2,111.03 -1519.08,311.5 -1888.6,425.83l-465.65 1805.59z"/>
  <path class="fil10" d="M7057.36 20145.25c-277.77,32.88 -460.59,31.17 -720.05,126.12 -835.42,305.72 128.2,706.46 1352.01,633.2 301.86,-18.07 1472.13,-253.41 854.65,-572.16 -331.86,-171.31 -1061.37,-237.49 -1486.61,-187.16z"/>
  <path class="fil0" d="M16321.42 16244.3l198.01 220.01 348.9 -33.61c5.88,-6.11 16.23,-10.74 21.51,-13.56l69.65 -34.46c35.03,-16.26 18.02,4.48 69.66,-29.82 47.5,-31.54 60.45,-71.89 71.29,-117.16l377.98 -2237.74c-399,264.44 -1214.99,1284.72 -1285.4,1997.61 76.47,138.91 131.39,86.3 128.4,248.74z"/>
  <path class="fil9" d="M12296.41 22416.21c64.62,123.19 467.47,553.7 682.17,574.5 115.4,11.18 930.93,-165.28 1027.79,-209.26 349.83,-158.87 300.94,-502.25 45.54,-805.5 -152.63,-181.23 -460.13,-545.85 -613.01,-633.35 69.62,364.24 33.47,477.76 -24.49,822.22 -41.31,245.56 226.65,401.33 200.72,668.58l-236.04 -497.71c-176.65,69.94 -127.93,267.35 -497.43,259.18 -248.27,-5.48 -393.22,-113.85 -585.24,-178.65z"/>
  <path class="fil6" d="M5864.75 20865.75l-9.67 334.76c296.43,526.78 1895.9,532.11 2677.69,213.69 128.21,-52.22 230.68,-129.21 345.53,-166.24l1.24 -393.61c-455.51,274.93 -819.99,386.76 -1501.43,398.72 -649.35,11.4 -1093.65,-52.09 -1513.37,-387.31z"/>
  <path class="fil6" d="M5873.51 21841.5l9.41 383.98c236.31,101.86 184,167.65 639.19,277.36 493.96,119.05 1183.51,92.86 1675.75,-30.35 332.38,-83.19 430.97,-179.84 666.6,-279.39l5.56 -386.63c-559.97,269.92 -665.17,372.16 -1459.82,396.66 -392.24,12.1 -872.14,-28.59 -1210.61,-179.6 -116.76,-52.1 -218.37,-140.39 -326.09,-182.03z"/>
  <path class="fil6" d="M8874.07 22878.33l-16.45 -88.37c-449.78,257.02 -815.6,382.12 -1416.35,391.61 -427.68,6.76 -817.96,-0.12 -1212.36,-160.77 -138.5,-56.42 -199.58,-114.13 -327.34,-163.95l6.58 357.19c121.56,65.18 164.35,108.14 323.26,176.34 625.61,268.51 1926.62,211.49 2513.11,-152.27 194.99,-120.93 36.41,-203.66 129.54,-359.79z"/>
  <path class="fil2" d="M5882.93 22225.48l-9.41 -383.98c-116.31,-312.81 -561.56,-291.66 -546.49,28.65 9.55,202.77 377.79,487.77 553.27,528.56l2.63 -173.23z"/>
 </g>
</svg>
