<svg xmlns="http://www.w3.org/2000/svg" width="868.831" height="571.982" viewBox="0 0 868.831 571.982">
  <g id="Group_23" transform="translate(-204.035 -328.738)">
    <path id="Path_34" d="M681.046,379.8q-1.5,7.9-3.6,15.634c-.152.6-.322,1.189-.491,1.788H657.475a6.264,6.264,0,0,0-6.257,6.257V459.01c-.59,1.1-1.189,2.19-1.788,3.28-3.093,5.631-6.311,11.2-9.6,16.7A634.775,634.775,0,0,1,422,696.689l5.292-11.942-5.828-.4c-42.235-2.887-84.614-6.087-125.857-15.58-43.147-9.931-85.355-27.156-119.171-55.715s-58.62-69.364-62.061-113.5a129.507,129.507,0,0,1,4.532-45.06c7.928-28.175,25.252-53.525,50.244-68.524,39.259-23.553,90.468-18.753,131.855.84s75.058,52.005,107.944,83.863a416.918,416.918,0,0,0-134.894-140.8c-18.378-11.763-37.882-22.239-53.507-37.48s-27.138-36.586-24.376-58.227c3.137-24.546,23.241-43.174,43.379-57.538,8.045-5.739,16.349-11.182,24.912-16.188,24.161-14.159,50.3-24.841,77.9-28.8,37.391-5.372,77.776,2.78,106.442,27.379,32.3,27.719,45.542,72.421,44.282,115.184,19.9-28.926,50.584-51.067,85.239-52.005,35.978-.965,70.178,21.766,88.2,52.926S687.777,344.452,681.046,379.8Z" transform="translate(90.025 198.686)" fill="#d57c7c"/>
    <path id="Path_35" d="M493.538,512.407c21.073-1.856,40.538-4.024,60.958-9.8,19.793-5.6,38.839-14.977,52.93-30.286,15.155-16.466,23.336-37.851,29.108-59.139,3.218-11.869,5.863-23.9,8.358-35.943q4.061-19.593,7.216-39.36,6.281-39.346,8.968-79.155.325-4.832.6-9.668c.112-1.989-2.981-1.982-3.093,0q-2.207,39.241-7.942,78.175c-3.773,25.5-8.6,50.894-14.724,75.939-5.188,21.217-11.906,42.765-25.212,60.428-12.478,16.563-30.5,27.386-49.96,33.857-19.8,6.585-40.68,9.214-61.372,11.169-2.538.24-3.29.468-5.83.692-1.967.173-1.986,3.268,0,3.093Z" transform="translate(49.902 186.214)" fill="#fff"/>
    <path id="Path_36" d="M121.312,495.193a335.209,335.209,0,0,1,78.393,13.814,338.783,338.783,0,0,1,73.008,31.779,330.519,330.519,0,0,1,61.48,46.29,338.658,338.658,0,0,1,48.025,57.263,335.293,335.293,0,0,1,34.366,66.622q1.633,4.3,3.146,8.644c.652,1.867,3.641,1.064,2.982-.822a338.459,338.459,0,0,0-32.831-68.28,342.859,342.859,0,0,0-47.107-59.345,334.278,334.278,0,0,0-60.14-47.994,341.382,341.382,0,0,0-151.577-50.392q-4.868-.408-9.746-.671c-1.989-.109-1.983,2.984,0,3.093Z" transform="translate(89.408 160.261)" fill="#fff"/>
    <path id="Path_37" d="M283.139,167.731A182.168,182.168,0,0,1,330.962,191.1a224.583,224.583,0,0,1,40.825,36.255,300.563,300.563,0,0,1,33.806,46.589,397.472,397.472,0,0,1,26.879,54.647,494.467,494.467,0,0,1,19.574,59.438,555.529,555.529,0,0,1,12.516,62.1,554.409,554.409,0,0,1,5.388,62.454A494.748,494.748,0,0,1,468.18,572.5a381.608,381.608,0,0,1-8.995,55.157,260.615,260.615,0,0,1-16.228,47.694q-2.411,5.221-5.115,10.3c-.935,1.756,1.733,3.32,2.671,1.561a238.4,238.4,0,0,0,18.265-45.971,356.015,356.015,0,0,0,10.892-54.078,470.511,470.511,0,0,0,3.6-59.79,548.583,548.583,0,0,0-3.743-62.828,565.927,565.927,0,0,0-10.9-62.778,512.282,512.282,0,0,0-18.218-61.14,425.414,425.414,0,0,0-25.334-56.265,326.175,326.175,0,0,0-32.484-49.03A241.865,241.865,0,0,0,342.909,196a191.9,191.9,0,0,0-46.539-26.845q-6.12-2.436-12.409-4.406c-1.9-.6-2.717,2.386-.822,2.982Z" transform="translate(72.189 195.012)" fill="#fff"/>
    <ellipse id="Ellipse_19" cx="221.232" cy="8.939" rx="221.232" ry="8.939" transform="translate(317.549 882.843)" fill="#e6e6e6"/>
    <path id="Path_38" d="M700.3,445.878a9.407,9.407,0,0,0-.214,1.466l-38.4,22.152-9.333-5.373-9.95,13.026,19.966,14.231,43.807-34.559a9.382,9.382,0,1,0-5.878-10.942Z" transform="translate(33.945 165.935)" fill="#ffb8b8"/>
    <path id="Path_39" d="M608.745,459.376l30.234,21.549L652.5,463.971l-29.391-23.583a11.91,11.91,0,0,0-17.152,2.377h0A11.91,11.91,0,0,0,608.745,459.376Z" transform="translate(38.049 166.027)" fill="#fe90c5"/>
    <path id="Path_40" d="M425.519,602.1l10.6,2.777,15.759-39.566-15.645-4.1Z" transform="translate(158.863 269.175)" fill="#ffb8b8"/>
    <path id="Path_41" d="M0,0H34.441V13.307H13.307A13.307,13.307,0,0,1,0,0H0Z" transform="matrix(-0.967, -0.253, 0.253, -0.967, 612.85, 889.258)" fill="#2f2e41"/>
    <path id="Path_42" d="M530.06,610.123l10.788-1.927-2.3-42.528-15.922,2.844Z" transform="translate(148.557 268.703)" fill="#ffb8b8"/>
    <path id="Path_43" d="M0,0H34.441V13.307H13.307A13.307,13.307,0,0,1,0,0H0Z" transform="translate(711.994 883.201) rotate(169.872)" fill="#2f2e41"/>
    <path id="Path_44" d="M618.94,395.241c2.658.647,4.821,3.356,6.12,6.494a45.3,45.3,0,0,1,2.417,10.2c1.021,6.487,2,13.509-.11,19.516-2.474,7.041-9.066,10.729-14.784,9s-10.265-8.238-11.819-15.727a38.087,38.087,0,0,1,2.614-22.422c1.624-3.7,3.863-7.11,6.838-8.778a6.748,6.748,0,0,1,9,1.875" transform="translate(38.434 170.826)" fill="#2f2e41"/>
    <path id="Path_45" d="M627.336,526.948,647.874,710.9l-16.963,6.441L599.626,593.988,556.069,706.775,537.5,707.806s25.475-175.495,44.355-179.483Z" transform="translate(45.079 156.563)" fill="#2f2e41"/>
    <ellipse id="Ellipse_20" cx="21.954" cy="21.954" rx="21.954" ry="21.954" transform="translate(633.209 545.635)" fill="#ffb8b8"/>
    <path id="Path_46" d="M624.406,431.761l-23.725-3.095s-15.473,18.567-14.441,50.544-2.579,41.776-2.579,41.776l49.467.894C625.978,512.048,655.888,455.576,624.406,431.761Z" transform="translate(40.18 166.993)" fill="#fe90c5"/>
    <path id="Path_47" d="M637.212,532.106a9.391,9.391,0,0,0-1.476.127l-30.351-32.31,3.094-10.315-14.957-6.7L584.238,505.6l43.667,34.735a9.382,9.382,0,1,0,9.307-8.226Z" transform="translate(40.119 161.237)" fill="#ffb8b8"/>
    <path id="Path_48" d="M604.643,445.312l-14.058,34.363,19.6,9.284,16.231-34.007a11.91,11.91,0,0,0-6.239-16.153h0a11.91,11.91,0,0,0-15.533,6.514Z" transform="translate(39.445 166.012)" fill="#fe90c5"/>
    <path id="Path_49" d="M608.11,414.01c3.44-1.984,3.807-6.772,3.34-10.715s-1.248-8.34,1.07-11.565c2.767-3.849,8.325-3.925,13.064-4.051s10.508-1.513,11.736-6.091c.811-3.025-.924-6.271-3.415-8.17s-5.607-2.738-8.635-3.536c-6.775-1.785-13.771-3.585-20.708-2.6a26.4,26.4,0,0,0-22.492,29.48c1.123,8.806,2.751,12.651,1.682,16.533-1.991,7.232-10.575,11.877-10.746,19.376-.134,5.866,5.047,10.39,10.1,13.369,4.01,2.362,8.337,4.367,12.958,4.92s9.6-.506,13.038-3.638c4.44-4.039,5.538-10.788,4.265-16.654s-4.539-11.075-7.769-16.133" transform="translate(41.312 173.538)" fill="#2f2e41"/>
    <path id="Path_50" d="M1038.368,426.948H721.045A8.057,8.057,0,0,0,713,434.993v203.8a8.057,8.057,0,0,0,8.045,8.045h317.323a8.057,8.057,0,0,0,8.045-8.045v-203.8A8.057,8.057,0,0,0,1038.368,426.948Zm6.257,211.847a6.264,6.264,0,0,1-6.257,6.257H721.045a6.264,6.264,0,0,1-6.257-6.257v-203.8a6.264,6.264,0,0,1,6.257-6.257h317.323a6.264,6.264,0,0,1,6.257,6.257Z" transform="translate(26.453 167.176)" fill="#fff"/>
    <path id="Path_51" d="M790.931,532.7H740.875a7.607,7.607,0,0,1-7.6-7.6V475.041a7.607,7.607,0,0,1,7.6-7.6h50.057a7.607,7.607,0,0,1,7.6,7.6V525.1A7.607,7.607,0,0,1,790.931,532.7Z" transform="translate(24.301 162.878)" fill="#fe90c5"/>
    <path id="Path_52" d="M1024.071,598.573H739.823a5.81,5.81,0,1,1,0-11.62h284.25a5.81,5.81,0,0,1,0,11.62Z" transform="translate(24.223 150.194)" fill="#ccc"/>
    <path id="Path_53" d="M1024.29,567.073H740.04a5.81,5.81,0,1,1,0-11.62h284.25a5.81,5.81,0,1,1,0,11.62Z" transform="translate(24.2 153.537)" fill="#ccc"/>
    <path id="Path_54" d="M896.049,524.063H854.037a5.81,5.81,0,0,1,0-11.62h42.012a5.81,5.81,0,0,1,0,11.62Z" transform="translate(12.102 158.102)" fill="#ccc"/>
    <path id="Path_55" d="M1036.389,492.073H854.04a5.81,5.81,0,0,1,0-11.62h182.349a5.81,5.81,0,0,1,0,11.62Z" transform="translate(12.102 161.497)" fill="#ccc"/>
    <path id="Path_56" d="M876.776,630.573H739.823a5.81,5.81,0,1,1,0-11.62H876.776a5.81,5.81,0,0,1,0,11.62Z" transform="translate(24.223 146.798)" fill="#ccc"/>
  </g>
</svg>
